<?xml version="1.0" encoding="utf-8"?>
<!-- Generator: Adobe Illustrator 23.0.2, SVG Export Plug-In . SVG Version: 6.00 Build 0)  -->
<svg version="1.1" id="Layer_1" xmlns="http://www.w3.org/2000/svg" xmlns:xlink="http://www.w3.org/1999/xlink" x="0px" y="0px"
	 viewBox="0 0 382.74 123.16" style="enable-background:new 0 0 382.74 123.16;" xml:space="preserve">
<style type="text/css">
	.st0{fill-rule:evenodd;clip-rule:evenodd;fill:#223243;}
	.st1{fill:#FFFFFF;}
	.st2{fill-rule:evenodd;clip-rule:evenodd;fill:#F15A29;}
</style>
<rect class="st0" width="382.74" height="123.16"/>
<g>
	<path class="st1" d="M60.75,58.45c0,4.8-1.74,8.57-5.21,11.31c-3.47,2.74-8.27,4.1-14.38,4.1c-6.11,0-11.11-0.95-15-2.85v-8.35
		c2.46,1.16,5.08,2.07,7.85,2.73c2.77,0.67,5.35,1,7.74,1c3.5,0,6.08-0.67,7.74-2c1.66-1.33,2.49-3.12,2.49-5.36
		c0-2.02-0.76-3.73-2.29-5.14c-1.53-1.4-4.68-3.07-9.46-4.99c-4.93-2-8.4-4.27-10.42-6.84c-2.02-2.56-3.03-5.64-3.03-9.24
		c0-4.51,1.6-8.06,4.8-10.64c3.2-2.59,7.5-3.88,12.9-3.88c5.17,0,10.32,1.13,15.45,3.4l-2.81,7.21c-4.8-2.02-9.09-3.03-12.86-3.03
		c-2.86,0-5.03,0.62-6.5,1.87c-1.48,1.24-2.22,2.89-2.22,4.93c0,1.4,0.29,2.61,0.89,3.6c0.59,1,1.56,1.94,2.92,2.83
		c1.35,0.89,3.79,2.06,7.32,3.51c3.97,1.65,6.87,3.19,8.72,4.62c1.85,1.43,3.2,3.04,4.07,4.84C60.32,53.9,60.75,56.01,60.75,58.45z"
		/>
	<path class="st1" d="M102.98,52.61c0,6.68-1.71,11.89-5.14,15.63c-3.42,3.75-8.19,5.62-14.3,5.62c-3.82,0-7.19-0.86-10.13-2.59
		c-2.93-1.72-5.19-4.2-6.76-7.43c-1.58-3.23-2.37-6.97-2.37-11.23c0-6.63,1.7-11.8,5.1-15.52c3.4-3.72,8.19-5.58,14.38-5.58
		c5.91,0,10.59,1.9,14.04,5.71C101.26,41.03,102.98,46.16,102.98,52.61z M73.24,52.61c0,9.44,3.49,14.15,10.46,14.15
		c6.9,0,10.35-4.72,10.35-14.15c0-9.34-3.47-14.01-10.42-14.01c-3.65,0-6.29,1.21-7.93,3.62C74.05,44.65,73.24,48.11,73.24,52.61z"
		/>
	<path class="st1" d="M145.36,73.12h-8.72V48c0-3.15-0.63-5.51-1.9-7.06c-1.27-1.55-3.28-2.33-6.04-2.33
		c-3.67,0-6.35,1.08-8.05,3.25c-1.7,2.17-2.55,5.8-2.55,10.9v20.36h-8.68V32.25h6.8l1.22,5.36h0.44c1.23-1.95,2.98-3.45,5.25-4.51
		c2.27-1.06,4.78-1.59,7.54-1.59c9.8,0,14.71,4.99,14.71,14.97V73.12z"/>
	<path class="st1" d="M179.46,73.12l-1.74-5.69h-0.3c-1.97,2.49-3.95,4.18-5.95,5.08c-2,0.9-4.56,1.35-7.69,1.35
		c-4.02,0-7.15-1.08-9.41-3.25c-2.25-2.17-3.38-5.24-3.38-9.2c0-4.21,1.56-7.39,4.69-9.53c3.13-2.14,7.89-3.31,14.3-3.51l7.06-0.22
		v-2.18c0-2.61-0.61-4.56-1.83-5.86c-1.22-1.29-3.11-1.94-5.67-1.94c-2.09,0-4.1,0.31-6.02,0.92c-1.92,0.62-3.77,1.34-5.54,2.18
		l-2.81-6.21c2.22-1.16,4.64-2.04,7.28-2.64c2.64-0.6,5.12-0.91,7.47-0.91c5.2,0,9.12,1.13,11.77,3.4
		c2.65,2.27,3.97,5.83,3.97,10.68v27.53H179.46z M166.53,67.21c3.15,0,5.68-0.88,7.59-2.64c1.91-1.76,2.86-4.23,2.86-7.41v-3.55
		l-5.25,0.22c-4.09,0.15-7.06,0.83-8.92,2.05c-1.86,1.22-2.79,3.09-2.79,5.6c0,1.82,0.54,3.23,1.62,4.23
		C162.73,66.71,164.36,67.21,166.53,67.21z"/>
</g>
<g>
	<path class="st1" d="M221.17,19.94h11.54l-18.33,53.92h-12.47l-18.29-53.92h11.54l10.14,32.09c0.57,1.89,1.15,4.1,1.75,6.62
		c0.6,2.52,0.98,4.27,1.12,5.26c0.27-2.26,1.19-6.22,2.77-11.88L221.17,19.94z"/>
</g>
<g>
	<path class="st1" d="M296.19,73.13l-1.51-5.27h-0.59c-1.21,1.92-2.91,3.4-5.13,4.44c-2.21,1.04-4.73,1.57-7.56,1.57
		c-4.84,0-8.5-1.3-10.96-3.89c-2.46-2.59-3.69-6.33-3.69-11.19V31.89H278v24.09c0,2.98,0.53,5.21,1.59,6.69
		c1.06,1.49,2.74,2.23,5.05,2.23c3.15,0,5.42-1.05,6.82-3.15c1.4-2.1,2.1-5.59,2.1-10.46v-19.4h11.25v41.24H296.19z"/>
	<path class="st1" d="M325.6,73.13h-11.25V15.73h11.25V73.13z"/>
	<path class="st1" d="M352.51,64.9c1.97,0,4.33-0.43,7.08-1.29v8.37c-2.8,1.25-6.25,1.88-10.33,1.88c-4.5,0-7.78-1.14-9.83-3.41
		c-2.05-2.27-3.08-5.69-3.08-10.24V40.34h-5.38v-4.76l6.2-3.76l3.25-8.7h7.19v8.78h11.54v8.45h-11.54v19.88
		c0,1.6,0.45,2.78,1.35,3.54C349.85,64.52,351.04,64.9,352.51,64.9z"/>
</g>
<g>
	<path class="st1" d="M27.23,104.47h-1.4V87.92h1.4V104.47z"/>
	<path class="st1" d="M31.99,92.17l0.05,2.1c0.46-0.76,1.04-1.34,1.73-1.73c0.69-0.4,1.45-0.6,2.28-0.6c1.32,0,2.3,0.37,2.94,1.11
		c0.64,0.74,0.97,1.86,0.98,3.34v8.07h-1.35v-8.08c-0.01-1.1-0.24-1.92-0.7-2.45c-0.46-0.54-1.19-0.81-2.2-0.81
		c-0.84,0-1.58,0.26-2.23,0.79s-1.13,1.24-1.44,2.13v8.42H30.7v-12.3H31.99z"/>
	<path class="st1" d="M44.9,89.02v3.15h2.55v1.11H44.9v8.2c0,0.68,0.12,1.19,0.37,1.53c0.25,0.33,0.66,0.5,1.23,0.5
		c0.23,0,0.6-0.04,1.1-0.11l0.06,1.1c-0.36,0.13-0.84,0.19-1.46,0.19c-0.93,0-1.61-0.27-2.03-0.81c-0.42-0.54-0.64-1.34-0.64-2.39
		v-8.21h-2.26v-1.11h2.26v-3.15H44.9z"/>
	<path class="st1" d="M54.33,104.7c-1.05,0-1.99-0.26-2.83-0.77c-0.85-0.51-1.5-1.23-1.97-2.15c-0.47-0.92-0.71-1.95-0.71-3.1v-0.49
		c0-1.18,0.23-2.25,0.69-3.19c0.46-0.95,1.1-1.69,1.92-2.23c0.82-0.54,1.7-0.81,2.66-0.81c1.49,0,2.68,0.51,3.55,1.53
		c0.88,1.02,1.31,2.41,1.31,4.18v0.76h-8.78v0.26c0,1.39,0.4,2.56,1.2,3.48c0.8,0.93,1.8,1.39,3.02,1.39c0.73,0,1.37-0.13,1.93-0.4
		c0.56-0.26,1.06-0.69,1.52-1.27l0.85,0.65C57.68,103.97,56.23,104.7,54.33,104.7z M54.08,93.1c-1.02,0-1.89,0.37-2.59,1.13
		c-0.7,0.75-1.13,1.76-1.28,3.02h7.38V97.1c-0.04-1.18-0.37-2.14-1.01-2.89C55.94,93.47,55.11,93.1,54.08,93.1z"/>
	<path class="st1" d="M62.42,104.47h-1.36V87.01h1.36V104.47z"/>
	<path class="st1" d="M66.94,104.47h-1.36V87.01h1.36V104.47z"/>
	<path class="st1" d="M69.85,88.62c0-0.26,0.08-0.47,0.25-0.65c0.17-0.18,0.39-0.27,0.68-0.27c0.29,0,0.52,0.09,0.69,0.27
		s0.26,0.39,0.26,0.65c0,0.26-0.09,0.47-0.26,0.64c-0.17,0.17-0.4,0.26-0.69,0.26c-0.29,0-0.51-0.09-0.68-0.26
		C69.94,89.09,69.85,88.87,69.85,88.62z M71.46,104.47h-1.36v-12.3h1.36V104.47z"/>
	<path class="st1" d="M73.91,98.21c0-1.93,0.43-3.45,1.28-4.57c0.85-1.13,2.01-1.69,3.47-1.69c1.67,0,2.95,0.67,3.82,2l0.07-1.77
		h1.27v12.05c0,1.58-0.44,2.84-1.33,3.76c-0.89,0.92-2.09,1.39-3.6,1.39c-0.86,0-1.67-0.19-2.45-0.57
		c-0.78-0.38-1.39-0.89-1.83-1.53l0.76-0.82c0.96,1.18,2.11,1.77,3.43,1.77c1.14,0,2.02-0.33,2.66-1.01
		c0.64-0.67,0.97-1.6,0.99-2.79v-1.55c-0.87,1.21-2.14,1.82-3.81,1.82c-1.43,0-2.57-0.57-3.43-1.71c-0.86-1.14-1.3-2.67-1.3-4.6
		V98.21z M75.28,98.44c0,1.57,0.31,2.81,0.94,3.71c0.63,0.91,1.52,1.36,2.66,1.36c1.67,0,2.86-0.75,3.56-2.25v-5.72
		c-0.32-0.79-0.78-1.39-1.37-1.8c-0.6-0.41-1.32-0.62-2.16-0.62c-1.14,0-2.03,0.45-2.67,1.35C75.6,95.37,75.28,96.69,75.28,98.44z"
		/>
	<path class="st1" d="M91.43,104.7c-1.05,0-1.99-0.26-2.84-0.77c-0.84-0.51-1.5-1.23-1.97-2.15c-0.47-0.92-0.7-1.95-0.7-3.1v-0.49
		c0-1.18,0.23-2.25,0.69-3.19c0.46-0.95,1.1-1.69,1.92-2.23c0.82-0.54,1.71-0.81,2.66-0.81c1.49,0,2.68,0.51,3.55,1.53
		c0.87,1.02,1.31,2.41,1.31,4.18v0.76h-8.77v0.26c0,1.39,0.4,2.56,1.2,3.48c0.8,0.93,1.81,1.39,3.02,1.39c0.73,0,1.37-0.13,1.93-0.4
		c0.56-0.26,1.06-0.69,1.52-1.27l0.85,0.65C94.78,103.97,93.33,104.7,91.43,104.7z M91.18,93.1c-1.02,0-1.88,0.37-2.59,1.13
		c-0.7,0.75-1.13,1.76-1.28,3.02h7.38V97.1c-0.04-1.18-0.38-2.14-1.01-2.89C93.04,93.47,92.21,93.1,91.18,93.1z"/>
	<path class="st1" d="M99.29,92.17l0.05,2.1c0.46-0.76,1.04-1.34,1.73-1.73c0.69-0.4,1.45-0.6,2.28-0.6c1.32,0,2.3,0.37,2.94,1.11
		c0.64,0.74,0.97,1.86,0.98,3.34v8.07h-1.35v-8.08c-0.01-1.1-0.24-1.92-0.7-2.45c-0.46-0.54-1.19-0.81-2.2-0.81
		c-0.84,0-1.59,0.26-2.23,0.79c-0.65,0.53-1.13,1.24-1.44,2.13v8.42h-1.35v-12.3H99.29z"/>
	<path class="st1" d="M112.19,89.02v3.15h2.55v1.11h-2.55v8.2c0,0.68,0.12,1.19,0.37,1.53c0.25,0.33,0.66,0.5,1.23,0.5
		c0.23,0,0.6-0.04,1.1-0.11l0.06,1.1c-0.36,0.13-0.84,0.19-1.46,0.19c-0.93,0-1.61-0.27-2.04-0.81c-0.42-0.54-0.64-1.34-0.64-2.39
		v-8.21h-2.26v-1.11h2.26v-3.15H112.19z"/>
	<path class="st1" d="M131.08,99.82h-7.51l-1.71,4.65h-1.47l6.26-16.55h1.33l6.26,16.55h-1.46L131.08,99.82z M123.99,98.64h6.64
		l-3.32-9.01L123.99,98.64z"/>
	<path class="st1" d="M141.35,93.33c-0.29-0.05-0.59-0.08-0.92-0.08c-0.85,0-1.57,0.24-2.15,0.71c-0.59,0.47-1.01,1.16-1.26,2.06
		v8.45h-1.35v-12.3h1.33l0.02,1.96c0.72-1.46,1.88-2.18,3.47-2.18c0.38,0,0.68,0.05,0.9,0.15L141.35,93.33z"/>
	<path class="st1" d="M147.13,103.55c0.95,0,1.74-0.27,2.38-0.8c0.64-0.53,0.99-1.23,1.04-2.07h1.31c-0.04,0.75-0.27,1.43-0.71,2.05
		c-0.43,0.62-1.01,1.1-1.72,1.45c-0.72,0.35-1.48,0.52-2.3,0.52c-1.61,0-2.89-0.56-3.84-1.68c-0.94-1.12-1.42-2.63-1.42-4.52v-0.41
		c0-1.21,0.21-2.28,0.64-3.22c0.42-0.93,1.03-1.65,1.82-2.16c0.79-0.51,1.72-0.76,2.78-0.76c1.35,0,2.46,0.4,3.34,1.2
		c0.88,0.8,1.34,1.86,1.4,3.17h-1.31c-0.06-0.96-0.41-1.74-1.04-2.33c-0.63-0.59-1.43-0.89-2.39-0.89c-1.23,0-2.18,0.44-2.86,1.33
		c-0.68,0.89-1.02,2.13-1.02,3.73v0.4c0,1.57,0.34,2.79,1.02,3.67C144.93,103.11,145.89,103.55,147.13,103.55z"/>
	<path class="st1" d="M155.23,94.25c0.45-0.73,1.02-1.3,1.72-1.7c0.7-0.4,1.46-0.6,2.28-0.6c1.32,0,2.3,0.37,2.94,1.11
		c0.64,0.74,0.97,1.86,0.98,3.34v8.07h-1.35v-8.08c-0.01-1.1-0.24-1.92-0.7-2.45c-0.46-0.54-1.19-0.81-2.2-0.81
		c-0.84,0-1.58,0.26-2.23,0.79s-1.13,1.24-1.44,2.13v8.42h-1.35V87.01h1.35V94.25z"/>
	<path class="st1" d="M165.87,88.62c0-0.26,0.08-0.47,0.25-0.65c0.17-0.18,0.39-0.27,0.68-0.27c0.29,0,0.52,0.09,0.69,0.27
		c0.17,0.18,0.26,0.39,0.26,0.65c0,0.26-0.09,0.47-0.26,0.64c-0.17,0.17-0.4,0.26-0.69,0.26c-0.29,0-0.51-0.09-0.68-0.26
		C165.95,89.09,165.87,88.87,165.87,88.62z M167.47,104.47h-1.36v-12.3h1.36V104.47z"/>
	<path class="st1" d="M174.3,102.59l3.74-10.42h1.4l-4.59,12.3h-1.1l-4.61-12.3h1.4L174.3,102.59z"/>
	<path class="st1" d="M180.89,88.62c0-0.26,0.08-0.47,0.25-0.65s0.39-0.27,0.68-0.27c0.29,0,0.52,0.09,0.69,0.27
		c0.17,0.18,0.26,0.39,0.26,0.65c0,0.26-0.09,0.47-0.26,0.64c-0.17,0.17-0.4,0.26-0.69,0.26c-0.29,0-0.52-0.09-0.68-0.26
		C180.97,89.09,180.89,88.87,180.89,88.62z M182.49,104.47h-1.36v-12.3h1.36V104.47z"/>
	<path class="st1" d="M186.78,92.17l0.05,2.1c0.46-0.76,1.04-1.34,1.73-1.73c0.69-0.4,1.45-0.6,2.28-0.6c1.32,0,2.3,0.37,2.94,1.11
		c0.64,0.74,0.97,1.86,0.98,3.34v8.07h-1.35v-8.08c-0.01-1.1-0.24-1.92-0.7-2.45c-0.46-0.54-1.19-0.81-2.2-0.81
		c-0.84,0-1.58,0.26-2.23,0.79s-1.13,1.24-1.44,2.13v8.42h-1.35v-12.3H186.78z"/>
	<path class="st1" d="M197.03,98.21c0-1.93,0.43-3.45,1.28-4.57c0.85-1.13,2.01-1.69,3.47-1.69c1.67,0,2.95,0.67,3.82,2l0.07-1.77
		h1.27v12.05c0,1.58-0.44,2.84-1.33,3.76c-0.89,0.92-2.09,1.39-3.6,1.39c-0.86,0-1.67-0.19-2.45-0.57
		c-0.78-0.38-1.39-0.89-1.84-1.53l0.76-0.82c0.96,1.18,2.11,1.77,3.43,1.77c1.14,0,2.02-0.33,2.66-1.01
		c0.64-0.67,0.97-1.6,0.99-2.79v-1.55c-0.87,1.21-2.14,1.82-3.81,1.82c-1.42,0-2.57-0.57-3.43-1.71c-0.86-1.14-1.3-2.67-1.3-4.6
		V98.21z M198.4,98.44c0,1.57,0.31,2.81,0.94,3.71c0.63,0.91,1.52,1.36,2.66,1.36c1.67,0,2.86-0.75,3.56-2.25v-5.72
		c-0.32-0.79-0.78-1.39-1.38-1.8c-0.6-0.41-1.32-0.62-2.16-0.62c-1.14,0-2.03,0.45-2.67,1.35C198.72,95.37,198.4,96.69,198.4,98.44z
		"/>
	<path class="st1" d="M222.51,104.47c-0.14-0.39-0.22-0.96-0.26-1.72c-0.48,0.62-1.09,1.1-1.82,1.44c-0.74,0.34-1.52,0.51-2.35,0.51
		c-1.18,0-2.14-0.33-2.87-0.99c-0.73-0.66-1.1-1.49-1.1-2.5c0-1.2,0.5-2.14,1.49-2.84c1-0.7,2.39-1.05,4.17-1.05h2.47v-1.4
		c0-0.88-0.27-1.57-0.81-2.07c-0.54-0.5-1.33-0.76-2.37-0.76c-0.95,0-1.73,0.24-2.35,0.73c-0.62,0.49-0.93,1.07-0.93,1.75
		l-1.36-0.01c0-0.98,0.45-1.82,1.36-2.54c0.91-0.72,2.03-1.07,3.35-1.07c1.37,0,2.45,0.34,3.25,1.03c0.79,0.69,1.2,1.64,1.22,2.87
		v5.82c0,1.19,0.13,2.08,0.38,2.67v0.14H222.51z M218.24,103.49c0.91,0,1.72-0.22,2.44-0.66c0.72-0.44,1.24-1.03,1.56-1.76v-2.71
		h-2.43c-1.36,0.01-2.42,0.26-3.18,0.74c-0.77,0.48-1.15,1.14-1.15,1.98c0,0.69,0.26,1.26,0.77,1.72
		C216.76,103.26,217.42,103.49,218.24,103.49z"/>
	<path class="st1" d="M227.82,92.17l0.04,2.1c0.46-0.76,1.04-1.34,1.73-1.73c0.69-0.4,1.45-0.6,2.28-0.6c1.32,0,2.3,0.37,2.94,1.11
		c0.64,0.74,0.97,1.86,0.98,3.34v8.07h-1.35v-8.08c-0.01-1.1-0.24-1.92-0.7-2.45c-0.46-0.54-1.19-0.81-2.2-0.81
		c-0.84,0-1.59,0.26-2.23,0.79c-0.65,0.53-1.13,1.24-1.44,2.13v8.42h-1.35v-12.3H227.82z"/>
	<path class="st1" d="M238.06,98.21c0-1.91,0.43-3.43,1.28-4.56c0.85-1.13,2.01-1.7,3.47-1.7c1.66,0,2.93,0.65,3.8,1.97v-6.9h1.35
		v17.46h-1.27l-0.06-1.64c-0.87,1.24-2.15,1.86-3.84,1.86c-1.42,0-2.56-0.57-3.43-1.71c-0.87-1.14-1.3-2.68-1.3-4.62V98.21z
		 M239.44,98.44c0,1.57,0.31,2.81,0.94,3.71c0.63,0.91,1.52,1.36,2.66,1.36c1.67,0,2.86-0.74,3.57-2.22v-5.77
		c-0.7-1.6-1.89-2.4-3.55-2.4c-1.14,0-2.03,0.45-2.67,1.35C239.76,95.37,239.44,96.69,239.44,98.44z"/>
	<path class="st1" d="M260.57,104.7c-1.05,0-1.99-0.26-2.84-0.77c-0.84-0.51-1.5-1.23-1.97-2.15c-0.47-0.92-0.7-1.95-0.7-3.1v-0.49
		c0-1.18,0.23-2.25,0.69-3.19c0.46-0.95,1.1-1.69,1.92-2.23c0.82-0.54,1.7-0.81,2.66-0.81c1.49,0,2.68,0.51,3.55,1.53
		c0.87,1.02,1.31,2.41,1.31,4.18v0.76h-8.78v0.26c0,1.39,0.4,2.56,1.2,3.48c0.8,0.93,1.8,1.39,3.02,1.39c0.73,0,1.37-0.13,1.93-0.4
		c0.56-0.26,1.06-0.69,1.52-1.27l0.85,0.65C263.92,103.97,262.47,104.7,260.57,104.7z M260.32,93.1c-1.02,0-1.88,0.37-2.59,1.13
		c-0.7,0.75-1.13,1.76-1.28,3.02h7.38V97.1c-0.04-1.18-0.38-2.14-1.01-2.89C262.18,93.47,261.35,93.1,260.32,93.1z"/>
	<path class="st1" d="M268.33,104.47V87.92h4.63c1.36,0,2.57,0.31,3.65,0.93c1.08,0.62,1.92,1.5,2.52,2.65
		c0.6,1.15,0.9,2.46,0.9,3.93v1.52c0,1.48-0.3,2.79-0.9,3.93c-0.6,1.14-1.44,2.03-2.53,2.65s-2.34,0.93-3.75,0.93H268.33z
		 M269.73,89.1v14.19h3.14c1.74,0,3.14-0.58,4.19-1.74c1.05-1.16,1.58-2.72,1.58-4.69V95.4c0-1.9-0.52-3.43-1.56-4.57
		c-1.04-1.14-2.41-1.72-4.1-1.73H269.73z"/>
	<path class="st1" d="M282.47,88.62c0-0.26,0.08-0.47,0.25-0.65c0.17-0.18,0.39-0.27,0.68-0.27c0.29,0,0.52,0.09,0.69,0.27
		c0.17,0.18,0.26,0.39,0.26,0.65c0,0.26-0.09,0.47-0.26,0.64c-0.17,0.17-0.4,0.26-0.69,0.26c-0.29,0-0.52-0.09-0.68-0.26
		C282.56,89.09,282.47,88.87,282.47,88.62z M284.08,104.47h-1.36v-12.3h1.36V104.47z"/>
	<path class="st1" d="M294.44,101.34c0-0.67-0.27-1.22-0.81-1.63c-0.54-0.41-1.36-0.73-2.45-0.96c-1.09-0.23-1.94-0.5-2.54-0.8
		c-0.6-0.3-1.05-0.66-1.34-1.1c-0.29-0.43-0.44-0.95-0.44-1.57c0-0.97,0.4-1.77,1.22-2.4c0.81-0.63,1.85-0.95,3.11-0.95
		c1.37,0,2.47,0.34,3.3,1.02c0.83,0.68,1.24,1.56,1.24,2.65h-1.36c0-0.72-0.3-1.32-0.9-1.8c-0.6-0.48-1.36-0.72-2.28-0.72
		c-0.89,0-1.61,0.2-2.15,0.6c-0.54,0.4-0.81,0.92-0.81,1.55c0,0.61,0.23,1.09,0.68,1.43c0.45,0.34,1.27,0.65,2.47,0.93
		s2.09,0.58,2.68,0.9c0.59,0.32,1.04,0.7,1.32,1.15c0.29,0.45,0.43,0.99,0.43,1.63c0,1.04-0.42,1.87-1.26,2.49
		c-0.84,0.62-1.93,0.93-3.28,0.93c-1.43,0-2.59-0.35-3.48-1.04c-0.89-0.69-1.34-1.57-1.34-2.63h1.36c0.05,0.8,0.39,1.42,1.01,1.86
		c0.62,0.44,1.43,0.66,2.45,0.66c0.95,0,1.71-0.21,2.3-0.63C294.14,102.51,294.44,101.98,294.44,101.34z"/>
	<path class="st1" d="M302.71,103.55c0.95,0,1.74-0.27,2.38-0.8c0.64-0.53,0.99-1.23,1.04-2.07h1.31c-0.04,0.75-0.27,1.43-0.7,2.05
		c-0.43,0.62-1.01,1.1-1.72,1.45c-0.72,0.35-1.48,0.52-2.3,0.52c-1.61,0-2.89-0.56-3.84-1.68c-0.94-1.12-1.42-2.63-1.42-4.52v-0.41
		c0-1.21,0.21-2.28,0.64-3.22c0.42-0.93,1.03-1.65,1.82-2.16c0.79-0.51,1.72-0.76,2.78-0.76c1.35,0,2.46,0.4,3.34,1.2
		c0.88,0.8,1.34,1.86,1.4,3.17h-1.31c-0.06-0.96-0.41-1.74-1.04-2.33c-0.63-0.59-1.43-0.89-2.39-0.89c-1.23,0-2.18,0.44-2.86,1.33
		c-0.68,0.89-1.02,2.13-1.02,3.73v0.4c0,1.57,0.34,2.79,1.02,3.67C300.51,103.11,301.47,103.55,302.71,103.55z"/>
	<path class="st1" d="M308.7,98.14c0-1.18,0.23-2.25,0.69-3.19c0.46-0.95,1.11-1.68,1.94-2.21c0.84-0.53,1.79-0.79,2.85-0.79
		c1.64,0,2.96,0.57,3.98,1.72c1.02,1.15,1.52,2.67,1.52,4.56v0.28c0,1.19-0.23,2.26-0.69,3.21c-0.46,0.95-1.11,1.68-1.94,2.2
		c-0.83,0.52-1.79,0.77-2.85,0.77c-1.63,0-2.95-0.57-3.97-1.72c-1.02-1.15-1.53-2.67-1.53-4.56V98.14z M310.07,98.51
		c0,1.47,0.38,2.68,1.14,3.62c0.76,0.94,1.76,1.42,2.99,1.42c1.23,0,2.22-0.47,2.98-1.42c0.76-0.94,1.14-2.19,1.14-3.73v-0.26
		c0-0.94-0.17-1.8-0.52-2.58c-0.35-0.78-0.84-1.38-1.47-1.81c-0.63-0.43-1.35-0.64-2.16-0.64c-1.21,0-2.2,0.48-2.97,1.43
		c-0.77,0.95-1.15,2.2-1.15,3.73V98.51z"/>
	<path class="st1" d="M325.45,102.59l3.74-10.42h1.4l-4.59,12.3h-1.1l-4.61-12.3h1.4L325.45,102.59z"/>
	<path class="st1" d="M336.73,104.7c-1.05,0-1.99-0.26-2.84-0.77c-0.84-0.51-1.5-1.23-1.97-2.15c-0.47-0.92-0.7-1.95-0.7-3.1v-0.49
		c0-1.18,0.23-2.25,0.69-3.19c0.46-0.95,1.1-1.69,1.92-2.23s1.7-0.81,2.66-0.81c1.49,0,2.68,0.51,3.55,1.53
		c0.87,1.02,1.31,2.41,1.31,4.18v0.76h-8.78v0.26c0,1.39,0.4,2.56,1.2,3.48c0.8,0.93,1.8,1.39,3.02,1.39c0.73,0,1.37-0.13,1.93-0.4
		c0.56-0.26,1.06-0.69,1.52-1.27l0.85,0.65C340.09,103.97,338.64,104.7,336.73,104.7z M336.48,93.1c-1.02,0-1.88,0.37-2.59,1.13
		c-0.7,0.75-1.13,1.76-1.28,3.02H340V97.1c-0.04-1.18-0.38-2.14-1.01-2.89C338.35,93.47,337.51,93.1,336.48,93.1z"/>
	<path class="st1" d="M348.98,93.33c-0.29-0.05-0.6-0.08-0.92-0.08c-0.85,0-1.57,0.24-2.15,0.71c-0.59,0.47-1.01,1.16-1.26,2.06
		v8.45h-1.35v-12.3h1.33l0.02,1.96c0.72-1.46,1.88-2.18,3.47-2.18c0.38,0,0.68,0.05,0.9,0.15L348.98,93.33z"/>
	<path class="st1" d="M354.54,102.51l3.59-10.34h1.47l-5.25,14.39l-0.27,0.64c-0.67,1.49-1.72,2.24-3.13,2.24
		c-0.33,0-0.67-0.05-1.05-0.16l-0.01-1.13l0.7,0.07c0.67,0,1.21-0.16,1.62-0.49c0.41-0.33,0.76-0.9,1.05-1.7l0.6-1.66l-4.64-12.2
		h1.49L354.54,102.51z"/>
</g>
<g>
	<path class="st2" d="M245,73.85c-5.73,0-11.46-0.01-17.19,0.01c-0.46,0-0.6-0.1-0.6-0.59c0.02-7.09,0.02-14.18,0-21.28
		c0-0.48,0.13-0.6,0.6-0.59c1.18,0.03,2.35,0.01,3.53,0.01c0.68,0,0.68,0,0.68-0.66c0-1.9,0.01-3.81-0.01-5.71
		c-0.04-5.53,3.54-10.51,8.81-12.05c4.51-1.32,8.78-0.74,12.55,2.2c2.52,1.97,4.03,4.62,4.42,7.79c0.25,2.05,0.18,4.13,0.24,6.2
		c0.02,0.54,0.02,1.08,0,1.62c-0.02,0.45,0.12,0.63,0.6,0.62c1.25-0.03,2.51,0,3.76-0.02c0.35,0,0.45,0.11,0.45,0.46
		c-0.01,7.17-0.01,14.34,0,21.51c0,0.46-0.21,0.48-0.56,0.48C256.52,73.85,250.76,73.85,245,73.85z M245,51.42
		c2.25,0,4.49-0.01,6.74,0c0.34,0,0.5-0.08,0.49-0.47c-0.02-1.95,0.02-3.9-0.03-5.85c-0.02-0.7-0.16-1.42-0.38-2.09
		c-1.06-3.3-4.31-5.21-7.83-4.77c-3.49,0.43-6.13,3.34-6.15,6.85c-0.01,1.92,0.01,3.84-0.01,5.76c0,0.45,0.14,0.58,0.58,0.57
		C240.6,51.41,242.8,51.42,245,51.42z M245.02,65.65c2.62,0,5.23-0.01,7.85,0.01c0.45,0,0.57-0.14,0.56-0.58
		c-0.03-1.27-0.02-2.54,0-3.81c0.01-0.38-0.13-0.51-0.51-0.51c-5.26,0.01-10.52,0.01-15.79,0c-0.42,0-0.52,0.16-0.51,0.55
		c0.02,1.27,0.02,2.54,0,3.81c-0.01,0.44,0.14,0.54,0.55,0.54C239.79,65.64,242.41,65.65,245.02,65.65z"/>
</g>
</svg>
