<?xml version="1.0" encoding="utf-8"?>
<!-- Generator: Adobe Illustrator 23.0.2, SVG Export Plug-In . SVG Version: 6.00 Build 0)  -->
<svg version="1.1" id="Layer_1" xmlns="http://www.w3.org/2000/svg" xmlns:xlink="http://www.w3.org/1999/xlink" x="0px" y="0px"
	 viewBox="0 0 382.74 123.16" style="enable-background:new 0 0 382.74 123.16;" xml:space="preserve">
<style type="text/css">
	.st0{fill-rule:evenodd;clip-rule:evenodd;fill:#223243;}
	.st1{fill:#FFFFFF;}
	.st2{fill-rule:evenodd;clip-rule:evenodd;fill:#F15A29;}
</style>
<rect class="st0" width="382.74" height="123.16"/>
<g>
	<path class="st1" d="M60.75,58.45c0,4.8-1.74,8.57-5.21,11.31c-3.47,2.74-8.27,4.1-14.38,4.1c-6.11,0-11.11-0.95-15-2.85v-8.35
		c2.46,1.16,5.08,2.07,7.85,2.73c2.77,0.67,5.35,1,7.74,1c3.5,0,6.08-0.67,7.74-2c1.66-1.33,2.49-3.12,2.49-5.36
		c0-2.02-0.76-3.73-2.29-5.14c-1.53-1.4-4.68-3.07-9.46-4.99c-4.93-2-8.4-4.27-10.42-6.84c-2.02-2.56-3.03-5.64-3.03-9.24
		c0-4.51,1.6-8.06,4.8-10.64c3.2-2.59,7.5-3.88,12.9-3.88c5.17,0,10.32,1.13,15.45,3.4l-2.81,7.21c-4.8-2.02-9.09-3.03-12.86-3.03
		c-2.86,0-5.03,0.62-6.5,1.87c-1.48,1.24-2.22,2.89-2.22,4.93c0,1.4,0.29,2.61,0.89,3.6c0.59,1,1.56,1.94,2.92,2.83
		c1.35,0.89,3.79,2.06,7.32,3.51c3.97,1.65,6.87,3.19,8.72,4.62c1.85,1.43,3.2,3.04,4.07,4.84C60.32,53.9,60.75,56.01,60.75,58.45z"
		/>
	<path class="st1" d="M102.98,52.61c0,6.68-1.71,11.89-5.14,15.63c-3.42,3.75-8.19,5.62-14.3,5.62c-3.82,0-7.19-0.86-10.13-2.59
		c-2.93-1.72-5.19-4.2-6.76-7.43c-1.58-3.23-2.37-6.97-2.37-11.23c0-6.63,1.7-11.8,5.1-15.52c3.4-3.72,8.19-5.58,14.38-5.58
		c5.91,0,10.59,1.9,14.04,5.71C101.26,41.03,102.98,46.16,102.98,52.61z M73.24,52.61c0,9.44,3.49,14.15,10.46,14.15
		c6.9,0,10.35-4.72,10.35-14.15c0-9.34-3.47-14.01-10.42-14.01c-3.65,0-6.29,1.21-7.93,3.62C74.05,44.65,73.24,48.11,73.24,52.61z"
		/>
	<path class="st1" d="M145.36,73.12h-8.72V48c0-3.15-0.63-5.51-1.9-7.06c-1.27-1.55-3.28-2.33-6.04-2.33
		c-3.67,0-6.35,1.08-8.05,3.25c-1.7,2.17-2.55,5.8-2.55,10.9v20.36h-8.68V32.25h6.8l1.22,5.36h0.44c1.23-1.95,2.98-3.45,5.25-4.51
		c2.27-1.06,4.78-1.59,7.54-1.59c9.8,0,14.71,4.99,14.71,14.97V73.12z"/>
	<path class="st1" d="M179.46,73.12l-1.74-5.69h-0.3c-1.97,2.49-3.95,4.18-5.95,5.08c-2,0.9-4.56,1.35-7.69,1.35
		c-4.02,0-7.15-1.08-9.41-3.25c-2.25-2.17-3.38-5.24-3.38-9.2c0-4.21,1.56-7.39,4.69-9.53c3.13-2.14,7.89-3.31,14.3-3.51l7.06-0.22
		v-2.18c0-2.61-0.61-4.56-1.83-5.86c-1.22-1.29-3.11-1.94-5.67-1.94c-2.09,0-4.1,0.31-6.02,0.92c-1.92,0.62-3.77,1.34-5.54,2.18
		l-2.81-6.21c2.22-1.16,4.64-2.04,7.28-2.64c2.64-0.6,5.12-0.91,7.47-0.91c5.2,0,9.12,1.13,11.77,3.4
		c2.65,2.27,3.97,5.83,3.97,10.68v27.53H179.46z M166.53,67.21c3.15,0,5.68-0.88,7.59-2.64c1.91-1.76,2.86-4.23,2.86-7.41v-3.55
		l-5.25,0.22c-4.09,0.15-7.06,0.83-8.92,2.05c-1.86,1.22-2.79,3.09-2.79,5.6c0,1.82,0.54,3.23,1.62,4.23
		C162.73,66.71,164.36,67.21,166.53,67.21z"/>
</g>
<g>
	<path class="st1" d="M221.17,19.94h11.54l-18.33,53.92h-12.47l-18.29-53.92h11.54l10.14,32.09c0.57,1.89,1.15,4.1,1.75,6.62
		c0.6,2.52,0.98,4.27,1.12,5.26c0.27-2.26,1.19-6.22,2.77-11.88L221.17,19.94z"/>
</g>
<g>
	<path class="st1" d="M296.19,73.13l-1.51-5.27h-0.59c-1.21,1.92-2.91,3.4-5.13,4.44c-2.21,1.04-4.73,1.57-7.56,1.57
		c-4.84,0-8.5-1.3-10.96-3.89c-2.46-2.59-3.69-6.33-3.69-11.19V31.89H278v24.09c0,2.98,0.53,5.21,1.59,6.69
		c1.06,1.49,2.74,2.23,5.05,2.23c3.15,0,5.42-1.05,6.82-3.15c1.4-2.1,2.1-5.59,2.1-10.46v-19.4h11.25v41.24H296.19z"/>
	<path class="st1" d="M325.6,73.13h-11.25V15.73h11.25V73.13z"/>
	<path class="st1" d="M352.51,64.9c1.97,0,4.33-0.43,7.08-1.29v8.37c-2.8,1.25-6.25,1.88-10.33,1.88c-4.5,0-7.78-1.14-9.83-3.41
		c-2.05-2.27-3.08-5.69-3.08-10.24V40.34h-5.38v-4.76l6.2-3.76l3.25-8.7h7.19v8.78h11.54v8.45h-11.54v19.88
		c0,1.6,0.45,2.78,1.35,3.54C349.85,64.52,351.04,64.9,352.51,64.9z"/>
</g>
<g>
	<path class="st1" d="M22.2,104.56h-1.37V88.29h1.37V104.56z"/>
	<path class="st1" d="M26.89,92.47l0.04,2.07c0.45-0.74,1.02-1.31,1.7-1.7s1.43-0.59,2.24-0.59c1.3,0,2.26,0.36,2.89,1.09
		c0.63,0.73,0.95,1.82,0.96,3.28v7.93H33.4v-7.94c-0.01-1.08-0.24-1.88-0.69-2.41c-0.45-0.53-1.17-0.79-2.16-0.79
		c-0.83,0-1.56,0.26-2.19,0.78s-1.11,1.21-1.41,2.09v8.28h-1.33V92.47H26.89z"/>
	<path class="st1" d="M39.57,89.38v3.09h2.5v1.09h-2.5v8.06c0,0.67,0.12,1.17,0.36,1.5s0.65,0.49,1.21,0.49
		c0.22,0,0.58-0.04,1.08-0.11l0.06,1.08c-0.35,0.12-0.83,0.19-1.43,0.19c-0.92,0-1.58-0.27-2-0.8s-0.62-1.32-0.62-2.35v-8.06h-2.22
		v-1.09h2.22v-3.09H39.57z"/>
	<path class="st1" d="M48.83,104.78c-1.03,0-1.96-0.25-2.79-0.76c-0.83-0.51-1.48-1.21-1.94-2.12c-0.46-0.9-0.69-1.92-0.69-3.04
		v-0.48c0-1.16,0.22-2.21,0.68-3.14c0.45-0.93,1.08-1.66,1.88-2.19s1.67-0.8,2.61-0.8c1.47,0,2.63,0.5,3.49,1.5
		c0.86,1,1.29,2.37,1.29,4.1v0.75h-8.62v0.26c0,1.37,0.39,2.51,1.18,3.42c0.79,0.91,1.77,1.37,2.96,1.37c0.71,0,1.35-0.13,1.89-0.39
		c0.55-0.26,1.04-0.68,1.49-1.25l0.84,0.64C52.13,104.07,50.7,104.78,48.83,104.78z M48.59,93.39c-1,0-1.85,0.37-2.54,1.11
		c-0.69,0.74-1.11,1.73-1.26,2.97h7.25v-0.15c-0.04-1.16-0.37-2.11-0.99-2.84S49.6,93.39,48.59,93.39z"/>
	<path class="st1" d="M56.78,104.56h-1.34V87.4h1.34V104.56z"/>
	<path class="st1" d="M61.22,104.56h-1.34V87.4h1.34V104.56z"/>
	<path class="st1" d="M64.08,88.98c0-0.25,0.08-0.46,0.25-0.64s0.39-0.26,0.67-0.26s0.51,0.09,0.68,0.26s0.25,0.39,0.25,0.64
		c0,0.25-0.08,0.46-0.25,0.63c-0.17,0.17-0.39,0.26-0.68,0.26s-0.51-0.08-0.67-0.26C64.17,89.44,64.08,89.23,64.08,88.98z
		 M65.66,104.56h-1.34V92.47h1.34V104.56z"/>
	<path class="st1" d="M68.07,98.4c0-1.89,0.42-3.39,1.26-4.5c0.84-1.11,1.98-1.66,3.41-1.66c1.65,0,2.9,0.66,3.75,1.96l0.07-1.74
		h1.25v11.84c0,1.56-0.44,2.79-1.31,3.7c-0.87,0.91-2.05,1.36-3.54,1.36c-0.84,0-1.64-0.19-2.41-0.56c-0.76-0.38-1.36-0.88-1.8-1.5
		l0.75-0.8c0.95,1.16,2.07,1.74,3.37,1.74c1.12,0,1.99-0.33,2.61-0.99c0.62-0.66,0.95-1.57,0.97-2.74v-1.52
		c-0.86,1.19-2.1,1.79-3.74,1.79c-1.4,0-2.52-0.56-3.37-1.68c-0.85-1.12-1.27-2.62-1.27-4.52V98.4z M69.42,98.64
		c0,1.54,0.31,2.76,0.93,3.65s1.49,1.33,2.61,1.33c1.65,0,2.81-0.74,3.5-2.21v-5.62c-0.31-0.77-0.76-1.36-1.35-1.77
		c-0.59-0.41-1.3-0.61-2.12-0.61c-1.12,0-2,0.44-2.62,1.32C69.73,95.61,69.42,96.92,69.42,98.64z"/>
	<path class="st1" d="M85.28,104.78c-1.03,0-1.96-0.25-2.79-0.76c-0.83-0.51-1.48-1.21-1.94-2.12c-0.46-0.9-0.69-1.92-0.69-3.04
		v-0.48c0-1.16,0.23-2.21,0.68-3.14c0.45-0.93,1.08-1.66,1.88-2.19s1.68-0.8,2.61-0.8c1.47,0,2.63,0.5,3.49,1.5
		c0.86,1,1.29,2.37,1.29,4.1v0.75H81.2v0.26c0,1.37,0.39,2.51,1.18,3.42c0.79,0.91,1.77,1.37,2.97,1.37c0.71,0,1.35-0.13,1.89-0.39
		c0.55-0.26,1.04-0.68,1.49-1.25l0.84,0.64C88.58,104.07,87.15,104.78,85.28,104.78z M85.04,93.39c-1,0-1.85,0.37-2.54,1.11
		c-0.69,0.74-1.11,1.73-1.26,2.97h7.25v-0.15c-0.04-1.16-0.37-2.11-0.99-2.84S86.05,93.39,85.04,93.39z"/>
	<path class="st1" d="M93.01,92.47l0.04,2.07c0.45-0.74,1.02-1.31,1.7-1.7s1.43-0.59,2.25-0.59c1.3,0,2.26,0.36,2.89,1.09
		c0.63,0.73,0.95,1.82,0.96,3.28v7.93h-1.33v-7.94c-0.01-1.08-0.24-1.88-0.69-2.41s-1.17-0.79-2.16-0.79
		c-0.83,0-1.56,0.26-2.19,0.78s-1.11,1.21-1.41,2.09v8.28h-1.33V92.47H93.01z"/>
	<path class="st1" d="M105.69,89.38v3.09h2.5v1.09h-2.5v8.06c0,0.67,0.12,1.17,0.36,1.5s0.65,0.49,1.21,0.49
		c0.22,0,0.58-0.04,1.08-0.11l0.06,1.08c-0.35,0.12-0.83,0.19-1.43,0.19c-0.92,0-1.58-0.27-2-0.8c-0.42-0.53-0.62-1.32-0.62-2.35
		v-8.06h-2.22v-1.09h2.22v-3.09H105.69z"/>
	<path class="st1" d="M124.24,99.99h-7.38l-1.68,4.57h-1.44l6.15-16.26h1.31l6.15,16.26h-1.43L124.24,99.99z M117.28,98.83h6.52
		l-3.26-8.86L117.28,98.83z"/>
	<path class="st1" d="M134.33,93.61c-0.28-0.05-0.58-0.08-0.9-0.08c-0.83,0-1.54,0.23-2.12,0.7c-0.58,0.47-0.99,1.14-1.23,2.03v8.3
		h-1.33V92.47h1.31l0.02,1.92c0.71-1.43,1.84-2.14,3.41-2.14c0.37,0,0.67,0.05,0.88,0.14L134.33,93.61z"/>
	<path class="st1" d="M140.01,103.65c0.93,0,1.71-0.26,2.34-0.79c0.63-0.52,0.97-1.2,1.02-2.04h1.29c-0.04,0.74-0.27,1.41-0.69,2.02
		c-0.42,0.61-0.99,1.08-1.69,1.42c-0.7,0.34-1.46,0.51-2.26,0.51c-1.59,0-2.84-0.55-3.77-1.65c-0.93-1.1-1.39-2.58-1.39-4.44v-0.4
		c0-1.19,0.21-2.25,0.63-3.16c0.42-0.92,1.01-1.62,1.79-2.12c0.78-0.5,1.69-0.75,2.73-0.75c1.33,0,2.42,0.39,3.28,1.18
		s1.32,1.83,1.38,3.12h-1.29c-0.06-0.95-0.4-1.71-1.02-2.29c-0.62-0.58-1.41-0.87-2.35-0.87c-1.21,0-2.14,0.44-2.81,1.31
		s-1,2.09-1,3.66v0.39c0,1.54,0.33,2.74,1,3.61C137.86,103.22,138.8,103.65,140.01,103.65z"/>
	<path class="st1" d="M147.97,94.52c0.44-0.72,1-1.28,1.69-1.67c0.68-0.39,1.43-0.59,2.24-0.59c1.3,0,2.26,0.36,2.89,1.09
		c0.63,0.73,0.95,1.82,0.96,3.28v7.93h-1.33v-7.94c-0.01-1.08-0.24-1.88-0.69-2.41c-0.45-0.53-1.17-0.79-2.16-0.79
		c-0.83,0-1.56,0.26-2.19,0.78s-1.11,1.21-1.41,2.09v8.28h-1.33V87.4h1.33V94.52z"/>
	<path class="st1" d="M158.43,88.98c0-0.25,0.08-0.46,0.25-0.64c0.16-0.17,0.39-0.26,0.67-0.26c0.28,0,0.51,0.09,0.68,0.26
		c0.17,0.17,0.25,0.39,0.25,0.64c0,0.25-0.08,0.46-0.25,0.63c-0.17,0.17-0.39,0.26-0.68,0.26c-0.28,0-0.51-0.08-0.67-0.26
		C158.51,89.44,158.43,89.23,158.43,88.98z M160,104.56h-1.34V92.47H160V104.56z"/>
	<path class="st1" d="M166.71,102.71l3.67-10.24h1.37l-4.51,12.08h-1.08l-4.53-12.08H163L166.71,102.71z"/>
	<path class="st1" d="M173.18,88.98c0-0.25,0.08-0.46,0.25-0.64s0.39-0.26,0.67-0.26c0.28,0,0.51,0.09,0.68,0.26
		s0.25,0.39,0.25,0.64c0,0.25-0.08,0.46-0.25,0.63c-0.17,0.17-0.39,0.26-0.68,0.26c-0.28,0-0.51-0.08-0.67-0.26
		C173.26,89.44,173.18,89.23,173.18,88.98z M174.76,104.56h-1.34V92.47h1.34V104.56z"/>
	<path class="st1" d="M178.97,92.47l0.04,2.07c0.45-0.74,1.02-1.31,1.7-1.7s1.43-0.59,2.24-0.59c1.3,0,2.26,0.36,2.89,1.09
		c0.63,0.73,0.95,1.82,0.96,3.28v7.93h-1.33v-7.94c-0.01-1.08-0.24-1.88-0.69-2.41c-0.45-0.53-1.17-0.79-2.16-0.79
		c-0.83,0-1.56,0.26-2.19,0.78s-1.11,1.21-1.41,2.09v8.28h-1.33V92.47H178.97z"/>
	<path class="st1" d="M189.04,98.4c0-1.89,0.42-3.39,1.26-4.5c0.84-1.11,1.97-1.66,3.41-1.66c1.65,0,2.9,0.66,3.75,1.96l0.07-1.74
		h1.25v11.84c0,1.56-0.44,2.79-1.31,3.7c-0.87,0.91-2.05,1.36-3.54,1.36c-0.84,0-1.64-0.19-2.41-0.56c-0.76-0.38-1.37-0.88-1.8-1.5
		l0.75-0.8c0.95,1.16,2.07,1.74,3.37,1.74c1.12,0,1.99-0.33,2.61-0.99c0.62-0.66,0.95-1.57,0.97-2.74v-1.52
		c-0.86,1.19-2.1,1.79-3.74,1.79c-1.4,0-2.52-0.56-3.37-1.68c-0.85-1.12-1.27-2.62-1.27-4.52V98.4z M190.39,98.64
		c0,1.54,0.31,2.76,0.93,3.65s1.49,1.33,2.61,1.33c1.65,0,2.81-0.74,3.5-2.21v-5.62c-0.31-0.77-0.76-1.36-1.35-1.77
		c-0.59-0.41-1.3-0.61-2.12-0.61c-1.12,0-2,0.44-2.62,1.32C190.71,95.61,190.39,96.92,190.39,98.64z"/>
	<path class="st1" d="M214.08,104.56c-0.13-0.38-0.22-0.94-0.26-1.69c-0.47,0.61-1.07,1.08-1.79,1.41c-0.73,0.33-1.49,0.5-2.31,0.5
		c-1.16,0-2.1-0.32-2.82-0.97s-1.08-1.47-1.08-2.46c0-1.18,0.49-2.11,1.47-2.79c0.98-0.68,2.34-1.03,4.09-1.03h2.42v-1.37
		c0-0.86-0.27-1.54-0.8-2.04c-0.53-0.5-1.31-0.74-2.33-0.74c-0.93,0-1.7,0.24-2.31,0.71c-0.61,0.48-0.92,1.05-0.92,1.72l-1.34-0.01
		c0-0.96,0.45-1.79,1.34-2.5c0.89-0.7,1.99-1.05,3.29-1.05c1.35,0,2.41,0.34,3.19,1.01c0.78,0.67,1.18,1.61,1.2,2.82v5.72
		c0,1.17,0.12,2.04,0.37,2.62v0.13H214.08z M209.88,103.6c0.89,0,1.69-0.22,2.4-0.65c0.7-0.43,1.21-1.01,1.54-1.73v-2.66h-2.39
		c-1.33,0.01-2.38,0.26-3.13,0.73s-1.13,1.12-1.13,1.95c0,0.68,0.25,1.24,0.75,1.69C208.42,103.37,209.08,103.6,209.88,103.6z"/>
	<path class="st1" d="M219.29,92.47l0.04,2.07c0.45-0.74,1.02-1.31,1.7-1.7c0.68-0.39,1.43-0.59,2.24-0.59
		c1.3,0,2.26,0.36,2.89,1.09c0.63,0.73,0.95,1.82,0.96,3.28v7.93h-1.33v-7.94c-0.01-1.08-0.24-1.88-0.69-2.41
		c-0.45-0.53-1.17-0.79-2.16-0.79c-0.83,0-1.56,0.26-2.19,0.78c-0.64,0.52-1.11,1.21-1.41,2.09v8.28h-1.33V92.47H219.29z"/>
	<path class="st1" d="M229.36,98.4c0-1.88,0.42-3.37,1.26-4.48c0.84-1.11,1.97-1.67,3.41-1.67c1.63,0,2.87,0.64,3.73,1.93V87.4h1.33
		v17.15h-1.25l-0.06-1.61c-0.86,1.22-2.12,1.83-3.78,1.83c-1.39,0-2.51-0.56-3.37-1.68c-0.85-1.12-1.28-2.63-1.28-4.54V98.4z
		 M230.71,98.64c0,1.54,0.31,2.76,0.93,3.65s1.49,1.33,2.61,1.33c1.65,0,2.81-0.73,3.51-2.18v-5.67c-0.69-1.57-1.85-2.36-3.48-2.36
		c-1.12,0-2,0.44-2.62,1.32C231.02,95.61,230.71,96.92,230.71,98.64z"/>
	<path class="st1" d="M251.47,104.78c-1.03,0-1.96-0.25-2.79-0.76c-0.83-0.51-1.48-1.21-1.94-2.12s-0.69-1.92-0.69-3.04v-0.48
		c0-1.16,0.23-2.21,0.68-3.14c0.45-0.93,1.08-1.66,1.88-2.19s1.67-0.8,2.61-0.8c1.47,0,2.63,0.5,3.49,1.5c0.86,1,1.29,2.37,1.29,4.1
		v0.75h-8.62v0.26c0,1.37,0.39,2.51,1.18,3.42c0.79,0.91,1.77,1.37,2.96,1.37c0.71,0,1.35-0.13,1.89-0.39
		c0.55-0.26,1.04-0.68,1.49-1.25l0.84,0.64C254.77,104.07,253.34,104.78,251.47,104.78z M251.23,93.39c-1,0-1.85,0.37-2.54,1.11
		c-0.69,0.74-1.11,1.73-1.26,2.97h7.25v-0.15c-0.04-1.16-0.37-2.11-0.99-2.84S252.24,93.39,251.23,93.39z"/>
	<path class="st1" d="M262.08,97.94h-5.35v-1.13h5.35V97.94z"/>
	<path class="st1" d="M264.09,104.56V88.29h4.55c1.33,0,2.53,0.3,3.58,0.91c1.06,0.61,1.88,1.48,2.47,2.61s0.89,2.42,0.89,3.86v1.5
		c0,1.45-0.29,2.74-0.88,3.86c-0.59,1.12-1.42,1.99-2.48,2.6s-2.29,0.92-3.68,0.92H264.09z M265.47,89.46v13.94h3.08
		c1.71,0,3.09-0.57,4.12-1.71c1.04-1.14,1.55-2.67,1.55-4.61v-1.43c0-1.87-0.51-3.37-1.53-4.49c-1.02-1.12-2.36-1.69-4.03-1.7
		H265.47z"/>
	<path class="st1" d="M277.99,88.98c0-0.25,0.08-0.46,0.25-0.64c0.16-0.17,0.39-0.26,0.67-0.26c0.28,0,0.51,0.09,0.68,0.26
		c0.17,0.17,0.25,0.39,0.25,0.64c0,0.25-0.08,0.46-0.25,0.63c-0.17,0.17-0.39,0.26-0.68,0.26c-0.28,0-0.51-0.08-0.67-0.26
		C278.08,89.44,277.99,89.23,277.99,88.98z M279.57,104.56h-1.34V92.47h1.34V104.56z"/>
	<path class="st1" d="M289.75,101.48c0-0.66-0.27-1.2-0.8-1.6c-0.53-0.4-1.33-0.72-2.41-0.94c-1.07-0.23-1.9-0.49-2.5-0.78
		c-0.59-0.29-1.03-0.65-1.32-1.08c-0.29-0.42-0.43-0.94-0.43-1.54c0-0.95,0.4-1.74,1.19-2.36c0.8-0.62,1.82-0.93,3.06-0.93
		c1.35,0,2.43,0.33,3.24,1s1.22,1.54,1.22,2.61h-1.34c0-0.71-0.3-1.29-0.89-1.76c-0.59-0.47-1.34-0.7-2.24-0.7
		c-0.88,0-1.58,0.2-2.12,0.59c-0.53,0.39-0.8,0.9-0.8,1.52c0,0.6,0.22,1.07,0.66,1.4c0.44,0.33,1.25,0.63,2.42,0.91
		s2.05,0.57,2.64,0.88c0.58,0.31,1.02,0.69,1.3,1.13s0.42,0.97,0.42,1.6c0,1.02-0.41,1.84-1.23,2.45c-0.82,0.61-1.9,0.92-3.22,0.92
		c-1.41,0-2.55-0.34-3.42-1.02c-0.88-0.68-1.31-1.54-1.31-2.58h1.34c0.05,0.78,0.38,1.39,0.99,1.83c0.61,0.44,1.41,0.65,2.41,0.65
		c0.93,0,1.68-0.21,2.26-0.61S289.75,102.11,289.75,101.48z"/>
	<path class="st1" d="M297.87,103.65c0.93,0,1.71-0.26,2.34-0.79c0.63-0.52,0.97-1.2,1.02-2.04h1.28c-0.04,0.74-0.27,1.41-0.69,2.02
		c-0.42,0.61-0.99,1.08-1.69,1.42c-0.7,0.34-1.46,0.51-2.26,0.51c-1.59,0-2.84-0.55-3.77-1.65c-0.93-1.1-1.39-2.58-1.39-4.44v-0.4
		c0-1.19,0.21-2.25,0.62-3.16c0.42-0.92,1.01-1.62,1.79-2.12c0.78-0.5,1.69-0.75,2.73-0.75c1.33,0,2.42,0.39,3.28,1.18
		c0.86,0.79,1.32,1.83,1.38,3.12h-1.28c-0.06-0.95-0.4-1.71-1.02-2.29c-0.62-0.58-1.41-0.87-2.35-0.87c-1.21,0-2.14,0.44-2.81,1.31
		c-0.67,0.87-1,2.09-1,3.66v0.39c0,1.54,0.33,2.74,1,3.61C295.72,103.22,296.66,103.65,297.87,103.65z"/>
	<path class="st1" d="M303.77,98.33c0-1.16,0.23-2.21,0.68-3.14s1.09-1.66,1.91-2.17c0.82-0.52,1.75-0.78,2.8-0.78
		c1.61,0,2.91,0.56,3.91,1.69s1.5,2.62,1.5,4.48v0.28c0,1.17-0.22,2.22-0.67,3.15c-0.45,0.93-1.09,1.66-1.9,2.16
		c-0.82,0.51-1.75,0.76-2.8,0.76c-1.6,0-2.9-0.56-3.9-1.69c-1-1.13-1.5-2.62-1.5-4.48V98.33z M305.11,98.7
		c0,1.44,0.37,2.63,1.12,3.56s1.73,1.39,2.94,1.39c1.21,0,2.18-0.46,2.93-1.39s1.12-2.15,1.12-3.67v-0.26
		c0-0.92-0.17-1.77-0.51-2.54c-0.34-0.77-0.82-1.36-1.44-1.78c-0.62-0.42-1.33-0.63-2.12-0.63c-1.19,0-2.16,0.47-2.91,1.4
		c-0.75,0.93-1.13,2.16-1.13,3.67V98.7z"/>
	<path class="st1" d="M320.22,102.71l3.67-10.24h1.37l-4.51,12.08h-1.08l-4.53-12.08h1.37L320.22,102.71z"/>
	<path class="st1" d="M331.31,104.78c-1.03,0-1.96-0.25-2.79-0.76c-0.83-0.51-1.48-1.21-1.94-2.12s-0.69-1.92-0.69-3.04v-0.48
		c0-1.16,0.23-2.21,0.68-3.14c0.45-0.93,1.08-1.66,1.88-2.19s1.67-0.8,2.61-0.8c1.47,0,2.63,0.5,3.49,1.5c0.86,1,1.29,2.37,1.29,4.1
		v0.75h-8.62v0.26c0,1.37,0.39,2.51,1.18,3.42c0.79,0.91,1.77,1.37,2.96,1.37c0.71,0,1.35-0.13,1.89-0.39
		c0.55-0.26,1.04-0.68,1.49-1.25l0.84,0.64C334.6,104.07,333.18,104.78,331.31,104.78z M331.06,93.39c-1,0-1.85,0.37-2.54,1.11
		c-0.69,0.74-1.11,1.73-1.26,2.97h7.25v-0.15c-0.04-1.16-0.37-2.11-0.99-2.84S332.07,93.39,331.06,93.39z"/>
	<path class="st1" d="M343.34,93.61c-0.28-0.05-0.58-0.08-0.9-0.08c-0.83,0-1.54,0.23-2.12,0.7c-0.58,0.47-0.99,1.14-1.23,2.03v8.3
		h-1.33V92.47h1.31l0.02,1.92c0.71-1.43,1.84-2.14,3.41-2.14c0.37,0,0.67,0.05,0.88,0.14L343.34,93.61z"/>
	<path class="st1" d="M348.8,102.63l3.53-10.16h1.44l-5.16,14.14l-0.27,0.63c-0.66,1.47-1.69,2.2-3.07,2.2
		c-0.32,0-0.66-0.05-1.03-0.16l-0.01-1.11l0.69,0.07c0.66,0,1.19-0.16,1.59-0.49c0.41-0.32,0.75-0.88,1.03-1.67l0.59-1.63
		l-4.56-11.98h1.46L348.8,102.63z"/>
</g>
<g>
	<path class="st2" d="M245,73.85c-5.73,0-11.46-0.01-17.19,0.01c-0.46,0-0.6-0.1-0.6-0.59c0.02-7.09,0.02-14.18,0-21.28
		c0-0.48,0.13-0.6,0.6-0.59c1.18,0.03,2.35,0.01,3.53,0.01c0.68,0,0.68,0,0.68-0.66c0-1.9,0.01-3.81-0.01-5.71
		c-0.04-5.53,3.54-10.51,8.81-12.05c4.51-1.32,8.78-0.74,12.55,2.2c2.52,1.97,4.03,4.62,4.42,7.79c0.25,2.05,0.18,4.13,0.24,6.2
		c0.02,0.54,0.02,1.08,0,1.62c-0.02,0.45,0.12,0.63,0.6,0.62c1.25-0.03,2.51,0,3.76-0.02c0.35,0,0.45,0.11,0.45,0.46
		c-0.01,7.17-0.01,14.34,0,21.51c0,0.46-0.21,0.48-0.56,0.48C256.52,73.85,250.76,73.85,245,73.85z M245,51.42
		c2.25,0,4.49-0.01,6.74,0c0.34,0,0.5-0.08,0.49-0.47c-0.02-1.95,0.02-3.9-0.03-5.85c-0.02-0.7-0.16-1.42-0.38-2.09
		c-1.06-3.3-4.31-5.21-7.83-4.77c-3.49,0.43-6.13,3.34-6.15,6.85c-0.01,1.92,0.01,3.84-0.01,5.76c0,0.45,0.14,0.58,0.58,0.57
		C240.6,51.41,242.8,51.42,245,51.42z M245.02,65.65c2.62,0,5.23-0.01,7.85,0.01c0.45,0,0.57-0.14,0.56-0.58
		c-0.03-1.27-0.02-2.54,0-3.81c0.01-0.38-0.13-0.51-0.51-0.51c-5.26,0.01-10.52,0.01-15.79,0c-0.42,0-0.52,0.16-0.51,0.55
		c0.02,1.27,0.02,2.54,0,3.81c-0.01,0.44,0.14,0.54,0.55,0.54C239.79,65.64,242.41,65.65,245.02,65.65z"/>
</g>
</svg>
