<svg xmlns="http://www.w3.org/2000/svg" viewBox="0 0 120 120"><defs><style>.a{fill:#cdcdcd;}.b{fill:#b8b8b8;}.c{fill:#e5e5e5;}.d{fill:#b2b2b2;}</style></defs><title>Artboard 13 copy</title><path class="a" d="M54.55,30.62l.15.05a2.77,2.77,0,0,1,.37.22,3,3,0,0,1,.3.18h0A4,4,0,0,1,57,33.68l.91,5.74h0l32.31,6.87a4,4,0,0,0,4.75-3.08L99.86,20a4,4,0,0,0-.55-3l-23,13.92a4.33,4.33,0,0,1-5.72-1.21L56.44,9.5A2.94,2.94,0,0,1,55.82,8a4,4,0,0,0-1.53,2.36L50,30.73l2.43-.39A4,4,0,0,1,54.55,30.62Z"/><path class="b" d="M96.78,15.27,59,7.25h0a4,4,0,0,0-.83-.09l-.25,0a3.68,3.68,0,0,0-.57.06l-.27.08a4.2,4.2,0,0,0-.5.17l-.26.14a3.91,3.91,0,0,0-.44.26l-.09,0V8a2.94,2.94,0,0,0,.62,1.53l14.1,20.23a4.33,4.33,0,0,0,5.72,1.21L99.31,17h0A4,4,0,0,0,96.78,15.27Z"/><path class="c" d="M118,66.11,78.16,88.33a4.32,4.32,0,0,1-5.65-1.41L60.05,67.64a3.89,3.89,0,0,1-1.65.67L42.45,70.84h0L37.18,92a4,4,0,0,0,2.9,4.85l63.4,15.81a4,4,0,0,0,4.85-2.92l10.14-40.67A4,4,0,0,0,118,66.11Z"/><path class="a" d="M118.05,66.1h0a4.14,4.14,0,0,0-.34-.48l-.09-.13,0,0h0a3.56,3.56,0,0,0-.49-.46h0l0,0,0,0a3.91,3.91,0,0,0-1.45-.7l-56-14h0l2.13,13.45a3.62,3.62,0,0,1,0,.73c0,.07,0,.13,0,.2a3.31,3.31,0,0,1-.08.55l0,.16a4.41,4.41,0,0,1-.23.64s0,.09-.07.13a2.87,2.87,0,0,1-.28.48l-.11.16a4.81,4.81,0,0,1-.42.48l0,0a3.94,3.94,0,0,1-.45.36h0L72.51,86.92a4.32,4.32,0,0,0,5.65,1.41L118,66.11h0Z"/><path class="c" d="M48.44,49.42h0a.1.1,0,0,1,.05,0l.11-.09a4,4,0,0,1,.46-.35l.12-.07a4.6,4.6,0,0,1,.59-.29l.16,0a5.12,5.12,0,0,1,.56-.15l.12,0a4.87,4.87,0,0,1,.66,0h.19a3.52,3.52,0,0,1,.65.1h0l7.43,1.85L57.87,39.42l-5.43-1.15a4.11,4.11,0,0,1-1.88-1L34.6,57.8a4.32,4.32,0,0,1-5.76.92L2.67,41a3.3,3.3,0,0,1-1-1,3.94,3.94,0,0,0-.45,2.54L6,72.57a4,4,0,0,0,4.57,3.33l31.93-5.06,4.87-19.5A4,4,0,0,1,48.44,49.42Z"/><path class="a" d="M50.55,37.29l-.1-.11-.11-.12a4,4,0,0,1-.4-.5l0,0a4.25,4.25,0,0,1-.31-.6l-.06-.15a3.61,3.61,0,0,1-.19-.64v0a3.85,3.85,0,0,1-.06-.69v-.17a4.41,4.41,0,0,1,.08-.72L50,30.73h0L4.5,37.93a2.1,2.1,0,0,0-.24.06,3.54,3.54,0,0,0-.58.17,4,4,0,0,0-.36.17c-.13.07-.27.14-.39.22s-.22.17-.33.25l-.31.28c-.1.1-.19.21-.28.32a3.88,3.88,0,0,0-.23.33c-.05.08-.11.14-.15.22v0a3.3,3.3,0,0,0,1,1L28.84,58.72a4.32,4.32,0,0,0,5.76-.92l16-20.52Z"/><path class="b" d="M57,33.68a4,4,0,0,0-1.58-2.6l-4.82,6.2a4.11,4.11,0,0,0,1.88,1l5.43,1.15Z"/><path class="d" d="M55.37,31.07a3,3,0,0,0-.3-.18,2.77,2.77,0,0,0-.37-.22l-.15-.05a4,4,0,0,0-2.17-.28L50,30.73h0l-.59,2.79a4.41,4.41,0,0,0-.08.72v.17a3.85,3.85,0,0,0,.06.69v0a3.61,3.61,0,0,0,.19.64l.06.15a4.25,4.25,0,0,0,.31.6l0,0a4,4,0,0,0,.4.5l.11.12.1.11h0l4.82-6.2h0Z"/><path class="a" d="M48.93,50.43a4,4,0,0,1-.49-1,4,4,0,0,0-1.12,1.92l-4.87,19.5h0L58.4,68.31a3.89,3.89,0,0,0,1.65-.67Z"/><path class="b" d="M61.72,63.73,59.59,50.28h0l-7.43-1.85h0a3.52,3.52,0,0,0-.65-.1h-.19a4.87,4.87,0,0,0-.66,0l-.12,0a5.12,5.12,0,0,0-.56.15l-.16,0a4.6,4.6,0,0,0-.59.29l-.12.07a4,4,0,0,0-.46.35l-.11.09a.1.1,0,0,0-.05,0h0a4,4,0,0,0,.49,1L60.05,67.64h0a3.94,3.94,0,0,0,.45-.36l0,0a4.81,4.81,0,0,0,.42-.48l.11-.16a2.87,2.87,0,0,0,.28-.48s0-.08.07-.13a4.41,4.41,0,0,0,.23-.64l0-.16a3.31,3.31,0,0,0,.08-.55c0-.07,0-.13,0-.2A3.62,3.62,0,0,0,61.72,63.73Z"/></svg>